<svg xmlns="http://www.w3.org/2000/svg" xmlns:xlink="http://www.w3.org/1999/xlink" width="500" zoomAndPan="magnify" viewBox="0 0 375 374.999991" height="500" preserveAspectRatio="xMidYMid meet" version="1.0"><defs><g/><clipPath id="id1"><path d="M 141.496094 118 L 156 118 L 156 152 L 141.496094 152 Z M 141.496094 118 " clip-rule="nonzero"/></clipPath><clipPath id="id2"><path d="M 219 118 L 233.746094 118 L 233.746094 152 L 219 152 Z M 219 118 " clip-rule="nonzero"/></clipPath></defs><g clip-path="url(#id1)"><path fill="#000000" d="M 155.523438 150.214844 L 150.882812 150.25 C 150.214844 150.25 149.515625 150.320312 148.851562 150.226562 C 148.335938 150.148438 147.945312 149.925781 147.8125 149.402344 C 147.652344 148.78125 147.726562 148.082031 147.71875 147.449219 C 147.707031 146.664062 147.703125 145.875 147.699219 145.085938 C 147.691406 143.550781 147.691406 142.015625 147.699219 140.480469 C 147.75 134.347656 147.953125 128.21875 148.304688 122.085938 C 148.34375 121.402344 148.292969 120.625 148.519531 119.972656 C 148.75 119.320312 149.398438 119.328125 150.003906 119.328125 L 155.257812 119.339844 C 155.886719 119.339844 155.886719 118.371094 155.257812 118.371094 L 150.324219 118.363281 C 149.636719 118.363281 148.859375 118.304688 148.273438 118.726562 C 147.730469 119.117188 147.527344 119.734375 147.445312 120.367188 C 147.347656 121.109375 147.332031 121.871094 147.292969 122.617188 C 147.246094 123.4375 147.203125 124.257812 147.160156 125.078125 C 147.082031 126.679688 147.015625 128.285156 146.957031 129.890625 C 146.957031 129.933594 146.957031 129.972656 146.957031 130.015625 C 146.882812 129.972656 146.804688 129.953125 146.722656 129.949219 L 144.363281 129.914062 C 143.714844 129.90625 142.933594 129.773438 142.332031 130.054688 C 141.734375 130.332031 141.59375 130.960938 141.578125 131.550781 C 141.558594 132.304688 141.5625 133.054688 141.554688 133.808594 C 141.542969 134.996094 141.53125 136.179688 141.519531 137.355469 C 141.496094 137.753906 141.53125 138.144531 141.628906 138.53125 C 141.707031 138.816406 141.832031 139.078125 141.996094 139.324219 C 142.164062 139.566406 142.363281 139.78125 142.597656 139.960938 C 142.832031 140.144531 143.085938 140.285156 143.367188 140.386719 C 143.644531 140.488281 143.933594 140.546875 144.230469 140.558594 C 144.707031 140.578125 145.179688 140.648438 145.660156 140.652344 C 146.285156 140.652344 146.289062 139.6875 145.660156 139.683594 C 145.261719 139.683594 144.875 139.632812 144.476562 139.601562 C 144.089844 139.601562 143.722656 139.511719 143.378906 139.328125 C 142.714844 138.925781 142.484375 138.238281 142.492188 137.503906 C 142.5 136.539062 142.511719 135.574219 142.519531 134.609375 L 142.542969 132.582031 C 142.542969 132.265625 142.542969 131.9375 142.542969 131.625 C 142.542969 131.4375 142.523438 131.15625 142.648438 130.996094 C 142.773438 130.835938 143.082031 130.859375 143.285156 130.863281 C 143.640625 130.863281 143.996094 130.863281 144.355469 130.878906 L 146.722656 130.917969 C 146.796875 130.921875 146.871094 130.90625 146.9375 130.875 C 146.839844 133.792969 146.773438 136.714844 146.746094 139.636719 C 146.722656 141.238281 146.714844 142.847656 146.722656 144.453125 C 146.722656 145.277344 146.722656 146.09375 146.738281 146.917969 C 146.71875 147.671875 146.734375 148.421875 146.792969 149.171875 C 146.875 149.898438 147.171875 150.585938 147.859375 150.929688 C 148.546875 151.273438 149.339844 151.230469 150.085938 151.226562 L 155.523438 151.1875 C 156.148438 151.179688 156.152344 150.210938 155.523438 150.214844 Z M 155.523438 150.214844 " fill-opacity="1" fill-rule="nonzero"/></g><path fill="#000000" d="M 219.785156 120.152344 C 219.738281 118.6875 219.6875 117.222656 219.628906 115.757812 C 219.582031 114.503906 219.519531 113.28125 218.75 112.226562 C 218.058594 111.285156 217.136719 110.730469 215.976562 110.5625 C 214.851562 110.386719 213.714844 110.519531 212.585938 110.589844 C 211.195312 110.679688 209.796875 110.628906 208.40625 110.632812 C 207.941406 110.632812 207.488281 110.722656 207.058594 110.898438 C 206.625 111.074219 206.242188 111.324219 205.910156 111.648438 C 205.578125 111.976562 205.320312 112.351562 205.136719 112.777344 C 204.957031 113.203125 204.859375 113.648438 204.855469 114.113281 C 204.839844 115.617188 204.855469 117.125 204.855469 118.617188 L 204.855469 130.890625 C 200.527344 130.765625 196.199219 130.691406 191.875 130.660156 C 187.394531 130.632812 182.914062 130.65625 178.429688 130.734375 C 175.890625 130.777344 173.351562 130.835938 170.816406 130.910156 C 170.683594 130.914062 170.566406 130.960938 170.472656 131.054688 C 170.378906 131.148438 170.332031 131.261719 170.328125 131.394531 L 170.300781 136.066406 C 170.285156 139.054688 170.273438 142.039062 170.261719 145.027344 C 170.261719 146.980469 170.253906 148.9375 170.242188 150.890625 C 170.242188 152.757812 169.871094 154.570312 168.886719 156.179688 C 168.414062 156.992188 167.789062 157.660156 167.007812 158.183594 C 166.359375 158.597656 165.652344 158.832031 164.886719 158.890625 C 163.34375 158.992188 161.808594 158.371094 160.617188 157.410156 C 158.996094 156.097656 158.082031 154.265625 157.582031 152.246094 C 156.929688 149.578125 156.972656 146.769531 156.910156 144.042969 C 156.839844 140.933594 156.808594 137.824219 156.816406 134.714844 C 156.816406 128.53125 156.972656 122.351562 157.207031 116.171875 C 157.253906 114.921875 157.207031 113.589844 158.074219 112.574219 C 158.808594 111.730469 159.863281 111.453125 160.949219 111.4375 C 162.195312 111.417969 163.429688 111.609375 164.675781 111.601562 L 166.484375 111.601562 C 167.125 111.601562 167.785156 111.539062 168.40625 111.757812 C 168.847656 111.921875 169.21875 112.1875 169.511719 112.558594 C 169.804688 112.929688 169.980469 113.347656 170.035156 113.8125 C 170.058594 114.078125 170.0625 114.34375 170.050781 114.609375 L 170.050781 124.765625 C 170.050781 125.386719 171.027344 125.386719 171.027344 124.765625 L 171.027344 114.429688 C 171.046875 113.960938 170.992188 113.5 170.859375 113.050781 C 170.6875 112.519531 170.398438 112.054688 170 111.65625 C 169.601562 111.261719 169.136719 110.976562 168.601562 110.800781 C 167.925781 110.585938 167.195312 110.632812 166.492188 110.632812 C 165.859375 110.632812 165.222656 110.632812 164.589844 110.632812 C 162.242188 110.632812 159.386719 109.84375 157.53125 111.738281 C 157.074219 112.210938 156.746094 112.761719 156.539062 113.386719 C 156.347656 114.050781 156.253906 114.726562 156.261719 115.417969 C 156.203125 116.996094 156.148438 118.574219 156.101562 120.152344 C 156 123.332031 155.929688 126.511719 155.882812 129.691406 C 155.839844 132.871094 155.832031 136.050781 155.863281 139.234375 C 155.894531 142.300781 155.898438 145.382812 156.082031 148.445312 C 156.242188 151.078125 156.65625 153.859375 158.128906 156.117188 C 159.113281 157.628906 160.445312 158.722656 162.125 159.40625 C 162.925781 159.742188 163.761719 159.898438 164.628906 159.871094 C 165.5 159.84375 166.324219 159.636719 167.101562 159.25 C 169.140625 158.203125 170.417969 155.9375 170.917969 153.789062 C 171.148438 152.664062 171.246094 151.527344 171.222656 150.378906 L 171.234375 147.449219 C 171.246094 144.429688 171.257812 141.40625 171.269531 138.386719 L 171.296875 131.867188 C 175.632812 131.738281 179.96875 131.660156 184.304688 131.632812 C 188.785156 131.601562 193.269531 131.625 197.757812 131.699219 C 200.121094 131.738281 202.488281 131.792969 204.851562 131.859375 L 204.851562 133.367188 C 204.851562 133.421875 204.859375 133.476562 204.878906 133.53125 L 204.867188 137.640625 L 204.867188 138.039062 L 177.332031 138.039062 C 176.03125 138.039062 174.742188 138 173.449219 138.039062 L 173.390625 138.039062 C 172.761719 138.039062 172.761719 139.007812 173.390625 139.007812 L 201.421875 139.007812 C 202.722656 139.007812 204.011719 139.046875 205.304688 139.007812 L 205.355469 139.007812 C 205.492188 139.003906 205.605469 138.957031 205.699219 138.863281 C 205.792969 138.769531 205.84375 138.65625 205.84375 138.523438 L 205.863281 132.273438 C 205.863281 131.976562 205.863281 131.683594 205.863281 131.390625 C 205.863281 131.328125 205.851562 131.269531 205.828125 131.210938 L 205.828125 114.730469 C 205.828125 114.019531 205.828125 113.355469 206.246094 112.726562 C 206.484375 112.375 206.789062 112.101562 207.160156 111.902344 C 207.535156 111.703125 207.933594 111.601562 208.359375 111.601562 C 208.902344 111.601562 209.441406 111.601562 209.984375 111.601562 C 210.636719 111.601562 211.296875 111.621094 211.949219 111.601562 C 213.070312 111.558594 214.195312 111.386719 215.316406 111.464844 C 216.300781 111.527344 217.269531 111.894531 217.886719 112.679688 C 218.636719 113.644531 218.621094 114.8125 218.667969 115.96875 C 218.882812 121.683594 219.027344 127.402344 219.058594 133.121094 C 219.074219 135.988281 219.058594 138.847656 219.015625 141.699219 C 218.972656 144.375 218.992188 147.074219 218.71875 149.746094 C 218.5 151.941406 217.96875 154.238281 216.617188 156.039062 C 215.726562 157.226562 214.582031 158.074219 213.183594 158.585938 C 212.515625 158.832031 211.824219 158.9375 211.109375 158.90625 C 210.40625 158.871094 209.746094 158.683594 209.132812 158.339844 C 207.398438 157.375 206.355469 155.40625 205.921875 153.542969 C 205.621094 152.25 205.644531 150.933594 205.59375 149.628906 C 205.542969 148.320312 205.492188 146.984375 205.441406 145.667969 L 205.410156 144.867188 C 205.382812 144.242188 204.410156 144.242188 204.433594 144.867188 C 204.511719 146.917969 204.609375 148.96875 204.671875 151.019531 C 204.679688 152.121094 204.824219 153.203125 205.105469 154.269531 C 205.425781 155.414062 205.945312 156.460938 206.664062 157.410156 C 207.746094 158.808594 209.265625 159.773438 211.0625 159.875 C 212.625 159.960938 214.195312 159.382812 215.457031 158.488281 C 216.984375 157.378906 218.074219 155.941406 218.722656 154.171875 C 219.664062 151.769531 219.808594 149.132812 219.882812 146.582031 C 219.972656 143.667969 220.023438 140.753906 220.039062 137.839844 C 220.070312 131.933594 219.972656 126.035156 219.785156 120.152344 Z M 219.785156 120.152344 " fill-opacity="1" fill-rule="nonzero"/><g clip-path="url(#id2)"><path fill="#000000" d="M 233.671875 134.402344 C 233.671875 133.636719 233.65625 132.875 233.652344 132.113281 C 233.652344 131.507812 233.707031 130.765625 233.242188 130.300781 C 232.691406 129.746094 231.777344 129.902344 231.074219 129.910156 L 228.925781 129.945312 C 228.824219 127.074219 228.6875 124.207031 228.515625 121.339844 C 228.472656 120.644531 228.472656 119.878906 228.101562 119.261719 C 227.667969 118.535156 226.871094 118.371094 226.078125 118.367188 C 224.257812 118.367188 222.441406 118.367188 220.625 118.378906 C 219.996094 118.378906 219.996094 119.347656 220.625 119.347656 L 225.289062 119.335938 C 225.640625 119.335938 225.992188 119.324219 226.339844 119.335938 C 226.621094 119.320312 226.875 119.390625 227.105469 119.550781 C 227.480469 119.871094 227.488281 120.503906 227.519531 120.953125 C 227.707031 124.03125 227.855469 127.117188 227.960938 130.199219 C 228.179688 136.320312 228.285156 142.457031 228.15625 148.585938 C 228.144531 149.140625 228.117188 149.808594 227.539062 150.074219 C 226.964844 150.339844 226.210938 150.246094 225.589844 150.238281 L 220.363281 150.203125 C 219.734375 150.203125 219.734375 151.164062 220.363281 151.167969 L 225.269531 151.207031 C 226.492188 151.207031 228.195312 151.40625 228.84375 150.089844 C 229.152344 149.46875 229.125 148.753906 229.136719 148.078125 C 229.144531 147.257812 229.152344 146.433594 229.160156 145.617188 C 229.167969 144.007812 229.167969 142.402344 229.160156 140.796875 C 229.160156 140.671875 229.160156 140.550781 229.160156 140.425781 C 229.25 140.578125 229.382812 140.652344 229.5625 140.640625 C 229.996094 140.640625 230.429688 140.5625 230.863281 140.546875 C 231.253906 140.550781 231.625 140.476562 231.984375 140.324219 C 232.34375 140.171875 232.65625 139.957031 232.925781 139.679688 C 233.191406 139.398438 233.394531 139.078125 233.527344 138.714844 C 233.664062 138.351562 233.71875 137.980469 233.695312 137.59375 Z M 232.699219 138.105469 C 232.613281 138.523438 232.40625 138.875 232.085938 139.160156 C 231.734375 139.453125 231.328125 139.59375 230.871094 139.589844 C 230.4375 139.605469 230.003906 139.679688 229.570312 139.683594 C 229.386719 139.675781 229.25 139.753906 229.160156 139.917969 C 229.125 136.921875 229.058594 133.917969 228.960938 130.90625 L 230.539062 130.882812 L 231.5 130.867188 C 231.789062 130.839844 232.078125 130.84375 232.367188 130.882812 C 232.800781 130.984375 232.675781 131.734375 232.679688 132.050781 L 232.699219 134.074219 L 232.730469 137.253906 C 232.75 137.539062 232.738281 137.824219 232.699219 138.105469 Z M 232.699219 138.105469 " fill-opacity="1" fill-rule="nonzero"/></g><g fill="#000000" fill-opacity="1"><g transform="translate(140.890374, 195.555762)"><g><path d="M 4.976562 0.167969 C 7.726562 0.167969 9.09375 -1.535156 9.09375 -5.683594 L 9.09375 -6.296875 C 9.09375 -10.445312 7.726562 -12.148438 4.976562 -12.148438 C 2.242188 -12.148438 0.875 -10.445312 0.875 -6.296875 L 0.875 -5.683594 C 0.875 -1.535156 2.242188 0.167969 4.976562 0.167969 Z M 4.929688 -0.828125 C 2.917969 -0.828125 2.011719 -2.273438 2.011719 -5.683594 L 2.011719 -6.296875 C 2.011719 -9.707031 2.917969 -11.152344 4.929688 -11.152344 L 5.039062 -11.152344 C 7.050781 -11.152344 7.957031 -9.707031 7.957031 -6.296875 L 7.957031 -5.683594 C 7.957031 -2.273438 7.050781 -0.828125 5.039062 -0.828125 Z M 4.929688 -0.828125 "/></g></g></g><g fill="#000000" fill-opacity="1"><g transform="translate(159.933274, 195.555762)"><g><path d="M 7.3125 0 L 7.3125 -1 L 2.242188 -1 L 2.242188 -11.980469 L 1.136719 -11.980469 L 1.136719 0 Z M 7.3125 0 "/></g></g></g><g fill="#000000" fill-opacity="1"><g transform="translate(176.550633, 195.555762)"><g><path d="M 2.320312 -11.980469 L 1.214844 -11.980469 L 1.214844 0 L 2.320312 0 Z M 2.320312 -11.980469 "/></g></g></g><g fill="#000000" fill-opacity="1"><g transform="translate(189.161246, 195.555762)"><g><path d="M 5.484375 0.121094 L 8.941406 -11.980469 L 7.742188 -11.980469 L 4.683594 -1.089844 L 1.644531 -11.980469 L 0.445312 -11.980469 L 3.902344 0.121094 Z M 5.484375 0.121094 "/></g></g></g><g fill="#000000" fill-opacity="1"><g transform="translate(207.620783, 195.555762)"><g><path d="M 1.136719 -11.980469 L 1.136719 0 L 7.816406 0 L 7.816406 -1 L 2.242188 -1 L 2.242188 -5.621094 L 7.050781 -5.621094 L 7.050781 -6.605469 L 2.242188 -6.605469 L 2.242188 -10.980469 L 7.816406 -10.980469 L 7.816406 -11.980469 Z M 1.136719 -11.980469 "/></g></g></g><g fill="#000000" fill-opacity="1"><g transform="translate(225.128525, 195.555762)"><g><path d="M 2.242188 -4.867188 L 4.453125 -4.867188 C 4.640625 -4.867188 4.824219 -4.867188 5.007812 -4.882812 L 6.910156 0 L 8.125 0 L 6.050781 -5.097656 C 7.1875 -5.46875 8.125 -6.359375 8.125 -8.265625 L 8.125 -8.570312 C 8.125 -11.335938 6.160156 -11.980469 4.453125 -11.980469 L 1.136719 -11.980469 L 1.136719 0 L 2.242188 0 Z M 2.242188 -5.867188 L 2.242188 -10.980469 L 4.484375 -10.980469 C 5.515625 -10.980469 6.988281 -10.597656 6.988281 -8.539062 L 6.988281 -8.308594 C 6.988281 -6.25 5.515625 -5.867188 4.484375 -5.867188 Z M 2.242188 -5.867188 "/></g></g></g><g fill="#000000" fill-opacity="1"><g transform="translate(122.632562, 224.80576)"><g><path d="M 2.011719 -5.683594 L 2.011719 -6.296875 C 2.011719 -9.707031 2.933594 -11.152344 4.929688 -11.152344 L 5.039062 -11.152344 C 6.835938 -11.152344 7.585938 -10.089844 7.585938 -7.617188 L 8.722656 -7.617188 L 8.722656 -8.046875 C 8.722656 -10.753906 7.496094 -12.148438 4.945312 -12.148438 C 2.195312 -12.148438 0.875 -10.445312 0.875 -6.296875 L 0.875 -5.683594 C 0.875 -1.535156 2.195312 0.167969 4.945312 0.167969 C 7.496094 0.167969 8.722656 -1.230469 8.722656 -3.746094 L 8.722656 -3.902344 L 7.585938 -3.902344 C 7.585938 -1.921875 6.835938 -0.828125 5.039062 -0.828125 L 4.929688 -0.828125 C 2.917969 -0.828125 2.011719 -2.273438 2.011719 -5.683594 Z M 2.011719 -5.683594 "/></g></g></g><g fill="#000000" fill-opacity="1"><g transform="translate(141.19956, 224.80576)"><g><path d="M 2.242188 -4.867188 L 4.453125 -4.867188 C 4.640625 -4.867188 4.824219 -4.867188 5.007812 -4.882812 L 6.910156 0 L 8.125 0 L 6.050781 -5.097656 C 7.1875 -5.46875 8.125 -6.359375 8.125 -8.265625 L 8.125 -8.570312 C 8.125 -11.335938 6.160156 -11.980469 4.453125 -11.980469 L 1.136719 -11.980469 L 1.136719 0 L 2.242188 0 Z M 2.242188 -5.867188 L 2.242188 -10.980469 L 4.484375 -10.980469 C 5.515625 -10.980469 6.988281 -10.597656 6.988281 -8.539062 L 6.988281 -8.308594 C 6.988281 -6.25 5.515625 -5.867188 4.484375 -5.867188 Z M 2.242188 -5.867188 "/></g></g></g><g fill="#000000" fill-opacity="1"><g transform="translate(159.244616, 224.80576)"><g><path d="M 4.976562 0.167969 C 7.726562 0.167969 9.09375 -1.535156 9.09375 -5.683594 L 9.09375 -6.296875 C 9.09375 -10.445312 7.726562 -12.148438 4.976562 -12.148438 C 2.242188 -12.148438 0.875 -10.445312 0.875 -6.296875 L 0.875 -5.683594 C 0.875 -1.535156 2.242188 0.167969 4.976562 0.167969 Z M 4.929688 -0.828125 C 2.917969 -0.828125 2.011719 -2.273438 2.011719 -5.683594 L 2.011719 -6.296875 C 2.011719 -9.707031 2.917969 -11.152344 4.929688 -11.152344 L 5.039062 -11.152344 C 7.050781 -11.152344 7.957031 -9.707031 7.957031 -6.296875 L 7.957031 -5.683594 C 7.957031 -2.273438 7.050781 -0.828125 5.039062 -0.828125 Z M 4.929688 -0.828125 "/></g></g></g><g fill="#000000" fill-opacity="1"><g transform="translate(178.287518, 224.80576)"><g><path d="M 4.421875 -5.683594 C 6.511719 -5.390625 7.386719 -4.683594 7.386719 -3.273438 L 7.386719 -3.132812 C 7.386719 -1.675781 6.296875 -0.828125 4.667969 -0.828125 L 4.5625 -0.828125 C 2.949219 -0.828125 1.8125 -1.796875 1.8125 -3.902344 L 0.707031 -3.902344 L 0.707031 -3.746094 C 0.707031 -1.273438 2.074219 0.167969 4.609375 0.167969 C 7.003906 0.167969 8.523438 -1.089844 8.523438 -3.210938 L 8.523438 -3.363281 C 8.523438 -5.207031 7.449219 -6.265625 4.839844 -6.621094 C 2.640625 -6.925781 1.980469 -7.679688 1.980469 -8.953125 L 1.980469 -9.078125 C 1.980469 -10.367188 3.085938 -11.152344 4.546875 -11.152344 L 4.652344 -11.152344 C 6.480469 -11.152344 7.28125 -10.199219 7.28125 -7.925781 L 8.386719 -7.925781 L 8.386719 -8.292969 C 8.386719 -10.765625 7.28125 -12.148438 4.609375 -12.148438 C 2.335938 -12.148438 0.84375 -10.9375 0.84375 -8.941406 L 0.84375 -8.785156 C 0.84375 -7.203125 1.8125 -6.035156 4.421875 -5.683594 Z M 4.421875 -5.683594 "/></g></g></g><g fill="#000000" fill-opacity="1"><g transform="translate(196.593543, 224.80576)"><g><path d="M 4.421875 -5.683594 C 6.511719 -5.390625 7.386719 -4.683594 7.386719 -3.273438 L 7.386719 -3.132812 C 7.386719 -1.675781 6.296875 -0.828125 4.667969 -0.828125 L 4.5625 -0.828125 C 2.949219 -0.828125 1.8125 -1.796875 1.8125 -3.902344 L 0.707031 -3.902344 L 0.707031 -3.746094 C 0.707031 -1.273438 2.074219 0.167969 4.609375 0.167969 C 7.003906 0.167969 8.523438 -1.089844 8.523438 -3.210938 L 8.523438 -3.363281 C 8.523438 -5.207031 7.449219 -6.265625 4.839844 -6.621094 C 2.640625 -6.925781 1.980469 -7.679688 1.980469 -8.953125 L 1.980469 -9.078125 C 1.980469 -10.367188 3.085938 -11.152344 4.546875 -11.152344 L 4.652344 -11.152344 C 6.480469 -11.152344 7.28125 -10.199219 7.28125 -7.925781 L 8.386719 -7.925781 L 8.386719 -8.292969 C 8.386719 -10.765625 7.28125 -12.148438 4.609375 -12.148438 C 2.335938 -12.148438 0.84375 -10.9375 0.84375 -8.941406 L 0.84375 -8.785156 C 0.84375 -7.203125 1.8125 -6.035156 4.421875 -5.683594 Z M 4.421875 -5.683594 "/></g></g></g><g fill="#000000" fill-opacity="1"><g transform="translate(214.899568, 224.80576)"><g><path d="M 1.136719 -11.980469 L 1.136719 0 L 2.242188 0 L 2.242188 -5.621094 L 6.804688 -5.621094 L 6.804688 -6.605469 L 2.242188 -6.605469 L 2.242188 -10.980469 L 7.574219 -10.980469 L 7.574219 -11.980469 Z M 1.136719 -11.980469 "/></g></g></g><g fill="#000000" fill-opacity="1"><g transform="translate(231.854658, 224.80576)"><g><path d="M 2.320312 -11.980469 L 1.214844 -11.980469 L 1.214844 0 L 2.320312 0 Z M 2.320312 -11.980469 "/></g></g></g><g fill="#000000" fill-opacity="1"><g transform="translate(244.465269, 224.80576)"><g><path d="M 4.5 -10.980469 L 7.558594 -10.980469 L 7.558594 -11.980469 L 0.351562 -11.980469 L 0.351562 -10.980469 L 3.394531 -10.980469 L 3.394531 0 L 4.5 0 Z M 4.5 -10.980469 "/></g></g></g><g fill="#000000" fill-opacity="1"><g transform="translate(167.034903, 254.055759)"><g><path d="M 2.351562 -1.382812 L 0.96875 -1.382812 L 0.96875 0 L 2.351562 0 Z M 2.351562 -1.382812 "/></g></g></g><g fill="#000000" fill-opacity="1"><g transform="translate(179.430595, 254.055759)"><g><path d="M 2.011719 -5.683594 L 2.011719 -6.296875 C 2.011719 -9.707031 2.933594 -11.152344 4.929688 -11.152344 L 5.039062 -11.152344 C 6.835938 -11.152344 7.585938 -10.089844 7.585938 -7.617188 L 8.722656 -7.617188 L 8.722656 -8.046875 C 8.722656 -10.753906 7.496094 -12.148438 4.945312 -12.148438 C 2.195312 -12.148438 0.875 -10.445312 0.875 -6.296875 L 0.875 -5.683594 C 0.875 -1.535156 2.195312 0.167969 4.945312 0.167969 C 7.496094 0.167969 8.722656 -1.230469 8.722656 -3.746094 L 8.722656 -3.902344 L 7.585938 -3.902344 C 7.585938 -1.921875 6.835938 -0.828125 5.039062 -0.828125 L 4.929688 -0.828125 C 2.917969 -0.828125 2.011719 -2.273438 2.011719 -5.683594 Z M 2.011719 -5.683594 "/></g></g></g><g fill="#000000" fill-opacity="1"><g transform="translate(197.997593, 254.055759)"><g><path d="M 4.976562 0.167969 C 7.726562 0.167969 9.09375 -1.535156 9.09375 -5.683594 L 9.09375 -6.296875 C 9.09375 -10.445312 7.726562 -12.148438 4.976562 -12.148438 C 2.242188 -12.148438 0.875 -10.445312 0.875 -6.296875 L 0.875 -5.683594 C 0.875 -1.535156 2.242188 0.167969 4.976562 0.167969 Z M 4.929688 -0.828125 C 2.917969 -0.828125 2.011719 -2.273438 2.011719 -5.683594 L 2.011719 -6.296875 C 2.011719 -9.707031 2.917969 -11.152344 4.929688 -11.152344 L 5.039062 -11.152344 C 7.050781 -11.152344 7.957031 -9.707031 7.957031 -6.296875 L 7.957031 -5.683594 C 7.957031 -2.273438 7.050781 -0.828125 5.039062 -0.828125 Z M 4.929688 -0.828125 "/></g></g></g></svg>